<?xml version="1.0" encoding="UTF-8"?>
<svg version="1.1" xmlns="http://www.w3.org/2000/svg" width="222" height="257">
<path d="M0 0 C7.12413062 0.08723425 12.17820669 3.72689301 18.0625 7.4375 C19.07876465 8.06624023 20.0950293 8.69498047 21.14208984 9.34277344 C28.05846962 13.66207624 34.74533928 18.20471936 41.2578125 23.109375 C43.8540334 25.06390912 43.8540334 25.06390912 46.5546875 25.953125 C49.77712678 27.33269964 51.54006217 29.51803288 54 32 C56.27562679 33.50246203 58.51564687 34.89848687 60.875 36.25 C62.20840902 37.03242312 63.54174006 37.81497913 64.875 38.59765625 C65.555625 38.99355957 66.23625 39.38946289 66.9375 39.79736328 C70.2641308 41.73711036 73.57094501 43.7096052 76.875 45.6875 C77.49753662 46.05963623 78.12007324 46.43177246 78.76147461 46.81518555 C83.61038199 49.72945075 88.3463459 52.78406017 93 56 C93.66 55.67 94.32 55.34 95 55 C95 55.99 95 56.98 95 58 C95.71027344 58.26047119 96.42054687 58.52094238 97.15234375 58.78930664 C100.17442159 60.07415609 102.78733736 61.61703049 105.5625 63.37109375 C106.60664062 64.02787109 107.65078125 64.68464844 108.7265625 65.36132812 C109.80679688 66.04646484 110.88703125 66.73160156 112 67.4375 C114.14563285 68.79068253 116.29145926 70.1435582 118.4375 71.49609375 C119.85869141 72.39606079 119.85869141 72.39606079 121.30859375 73.31420898 C122.19675781 73.87052002 123.08492188 74.42683105 124 75 C124.87785156 75.56726807 125.75570312 76.13453613 126.66015625 76.71899414 C128.99398241 78.24010869 128.99398241 78.24010869 132 78 C132 78.99 132 79.98 132 81 C132.99 80.67 133.98 80.34 135 80 C135 80.99 135 81.98 135 83 C135.639375 83.226875 136.27875 83.45375 136.9375 83.6875 C144.58530415 86.96513035 149.41198393 89.29240993 153 97 C153.699131 98.19294099 154.40747082 99.38053374 155.125 100.5625 C160.29478708 110.04044298 161.46702035 121.15757145 158.87890625 131.63671875 C155.67991098 140.23846157 149.14257802 146.92871099 141 151 C135.76597062 151.56214539 132.4345274 150.00420474 128.0625 147.375 C127.38936768 146.98328613 126.71623535 146.59157227 126.02270508 146.18798828 C123.67093165 144.8095345 121.33470304 143.40716859 119 142 C118.07219727 141.443125 117.14439453 140.88625 116.18847656 140.3125 C99.05193918 130.00684745 99.05193918 130.00684745 92.92431641 125.97753906 C91.4400415 125.00252441 91.4400415 125.00252441 89.92578125 124.0078125 C89.02899658 123.40855957 88.13221191 122.80930664 87.20825195 122.19189453 C86.47952881 121.79856934 85.75080566 121.40524414 85 121 C84.01 121.495 84.01 121.495 83 122 C82.67 121.01 82.34 120.02 82 119 C80.4772496 117.77201211 80.4772496 117.77201211 78.625 116.8125 C78.01914063 116.46832031 77.41328125 116.12414062 76.7890625 115.76953125 C74.86527771 114.80243534 74.86527771 114.80243534 72 115 C72 114.01 72 113.02 72 112 C71.01 111.62875 71.01 111.62875 70 111.25 C64.72534331 109.05222638 59.7845068 106.6082503 55.0625 103.375 C50.53214138 100.27779525 45.85011119 97.47386241 41.125 94.6875 C39.99976929 94.02016846 39.99976929 94.02016846 38.85180664 93.33935547 C38.14016357 92.92186035 37.42852051 92.50436523 36.6953125 92.07421875 C35.7364917 91.51093872 35.7364917 91.51093872 34.75830078 90.9362793 C32.84976642 89.85727332 32.84976642 89.85727332 30 89 C28.31002677 87.35697047 26.64783606 85.68528688 25 84 C23.89624968 83.16611529 22.7920546 82.33281907 21.6875 81.5 C11.47632031 72.87177611 6.21468208 58.38179717 3.375 45.6875 C3.16335205 44.75671631 2.9517041 43.82593262 2.73364258 42.86694336 C2.32368416 41.04180782 1.91921179 39.21542885 1.52099609 37.38769531 C1.10959304 35.50225862 0.6776434 33.62130561 0.23828125 31.7421875 C-1.78711685 21.88812298 -1.74926744 11.02003527 -1 1 C-0.67 0.67 -0.34 0.34 0 0 Z " fill="#3A7DFA" transform="translate(8,75)"/>
<path d="M0 0 C4.04134324 0.59031369 6.9130676 1.8823828 10.421875 3.94921875 C11.96101563 4.85124023 11.96101563 4.85124023 13.53125 5.77148438 C14.5934375 6.40376953 15.655625 7.03605469 16.75 7.6875 C17.79671875 8.30044922 18.8434375 8.91339844 19.921875 9.54492188 C25.4262221 12.78904645 30.80255723 16.15513867 36.09179688 19.73803711 C38.44517002 21.29440683 40.87148464 22.63835717 43.375 23.9375 C48.28292445 26.54311158 52.89043317 29.47069586 57.4921875 32.58203125 C60.04891277 34.02765629 62.10779367 34.60089626 65 35 C65 35.66 65 36.32 65 37 C66.93837665 38.50526693 66.93837665 38.50526693 69.453125 40.00390625 C70.38253906 40.57947266 71.31195313 41.15503906 72.26953125 41.74804688 C73.25308594 42.34681641 74.23664063 42.94558594 75.25 43.5625 C76.21808594 44.16513672 77.18617187 44.76777344 78.18359375 45.38867188 C83.81188042 48.85840499 83.81188042 48.85840499 90 51 C91.33333333 52.33333333 92.66666667 53.66666667 94 55 C95.3303125 55.5259375 95.3303125 55.5259375 96.6875 56.0625 C97.450625 56.371875 98.21375 56.68125 99 57 C99.33 57.99 99.66 58.98 100 60 C101.64295545 60.7231318 103.31538031 61.38009781 105 62 C106.85797539 63.08381898 108.69096807 64.21132497 110.5 65.375 C111.87671875 66.25285156 111.87671875 66.25285156 113.28125 67.1484375 C115.98126103 68.98723812 118.5473745 70.8406232 121 73 C121 73.66 121 74.32 121 75 C121.66 75 122.32 75 123 75 C130.63471254 83.66897163 135.11809787 94.67363104 135.1328125 106.23828125 C135.13410156 107.22376953 135.13539063 108.20925781 135.13671875 109.22460938 C135.13285156 110.24361328 135.12898437 111.26261719 135.125 112.3125 C135.12886719 113.31990234 135.13273438 114.32730469 135.13671875 115.36523438 C135.12939093 120.98933765 135.02603773 126.46069505 134 132 C133.34 132.33 132.68 132.66 132 133 C131.32324219 132.28714844 130.64648438 131.57429687 129.94921875 130.83984375 C126.82499527 127.72001285 123.38344477 125.14668262 119.8125 122.5625 C119.15193604 122.08167969 118.49137207 121.60085937 117.81079102 121.10546875 C110.87887031 116.11131388 103.7267863 111.66005667 96 108 C96 107.34 96 106.68 96 106 C94.92105469 105.5968457 94.92105469 105.5968457 93.8203125 105.18554688 C90.99498266 103.99789091 88.4971053 102.61429716 85.875 101.03125 C84.92109375 100.46019531 83.9671875 99.88914062 82.984375 99.30078125 C80.99479167 98.10026042 79.00520833 96.89973958 77.015625 95.69921875 C76.06171875 95.12816406 75.1078125 94.55710937 74.125 93.96875 C73.26132813 93.44732422 72.39765625 92.92589844 71.5078125 92.38867188 C69.05872196 91.0325166 66.61982177 89.9789119 64 89 C64 88.34 64 87.68 64 87 C63.29875 86.74476562 62.5975 86.48953125 61.875 86.2265625 C58.69585774 84.87024365 55.92768569 83.21212277 53 81.375 C51.83864875 80.64956812 50.67718746 79.92431239 49.515625 79.19921875 C48.92845703 78.83103027 48.34128906 78.4628418 47.73632812 78.08349609 C45.08713634 76.4303587 42.41665071 74.8122809 39.75 73.1875 C37.4975284 71.79546159 35.24760589 70.39983518 33 69 C32.30229492 68.56751953 31.60458984 68.13503906 30.88574219 67.68945312 C28.62543564 66.28255783 26.37449302 64.86160963 24.125 63.4375 C23.42342773 63.00268311 22.72185547 62.56786621 21.99902344 62.11987305 C10.98881738 55.08993763 4.56473978 45.81746302 0.9296875 33.3203125 C-1.32149726 22.98234754 -4.01626564 10.06392434 0 0 Z " fill="#5996FB" transform="translate(38,40)"/>
<path d="M0 0 C6.50390562 1.13080087 11.10627487 3.56836011 16.5625 7.1875 C17.37912109 7.71649902 18.19574219 8.24549805 19.03710938 8.79052734 C20.7924503 9.92977932 22.54448009 11.07414649 24.29345703 12.22314453 C26.98887987 13.99269959 29.69408038 15.74626633 32.40234375 17.49609375 C40.76831171 22.91399789 49.09888069 28.37963158 57.359375 33.95703125 C58.60151742 34.79352398 59.84370465 35.62995017 61.0859375 36.46630859 C63.49761607 38.09030956 65.90272035 39.72349637 68.3046875 41.36181641 C69.39523438 42.09706543 70.48578125 42.83231445 71.609375 43.58984375 C73.0629541 44.57778931 73.0629541 44.57778931 74.54589844 45.58569336 C76.9611309 47.24965973 76.9611309 47.24965973 80 47 C80 47.99 80 48.98 80 50 C80.52851563 50.23332031 81.05703125 50.46664062 81.6015625 50.70703125 C92.90422449 56.80016011 102.87121787 66.13606247 108 78 C112.13376416 91.98625905 108.00305682 104.13327633 103 117.25 C102.7632959 117.89388672 102.5265918 118.53777344 102.28271484 119.20117188 C101.15756357 122.03579027 100.4087638 123.73430353 97.8125 125.421875 C97.214375 125.61265625 96.61625 125.8034375 96 126 C95.85304688 125.16597656 95.70609375 124.33195312 95.5546875 123.47265625 C93.23878778 111.85322835 88.72584823 103.96777187 79 97 C77.515 96.505 77.515 96.505 76 96 C75.24589844 95.24074219 74.49179688 94.48148437 73.71484375 93.69921875 C70.8515623 90.85241661 68.00582256 88.90931715 64.5625 86.8125 C63.47066406 86.13832031 62.37882812 85.46414062 61.25390625 84.76953125 C58.20279335 83.11028258 55.32396837 81.97763776 52 81 C52 80.01 52 79.02 52 78 C51.04480469 77.68095703 51.04480469 77.68095703 50.0703125 77.35546875 C44.86344933 75.05676453 40.19059597 71.80898611 35.41796875 68.72460938 C34.63808594 68.23412109 33.85820313 67.74363281 33.0546875 67.23828125 C32.34812012 66.78493408 31.64155273 66.33158691 30.91357422 65.86450195 C28.85170084 64.67234192 28.85170084 64.67234192 26 66 C25.60167969 65.24203125 25.20335938 64.4840625 24.79296875 63.703125 C22.85923325 60.78777649 21.25753395 59.58082173 18.3125 57.75 C7.70781259 50.57715021 1.43319698 41.63661465 -1.0390625 29.05078125 C-2.68204679 19.58337202 -4.02011017 10.35497542 -1 1 C-0.67 0.67 -0.34 0.34 0 0 Z " fill="#85BDF6" transform="translate(80,12)"/>
<path d="M0 0 C6.97414295 1.82683481 12.70361733 5.95616498 18.74414062 9.74414062 C19.60330078 10.27330078 20.46246094 10.80246094 21.34765625 11.34765625 C22.12117432 11.83242432 22.89469238 12.31719238 23.69165039 12.81665039 C26.13911072 14.07131355 28.29167351 14.59026423 31 15 C31 15.99 31 16.98 31 18 C31.65613281 18.22816406 32.31226563 18.45632812 32.98828125 18.69140625 C36.96151152 20.41777738 40.51566253 22.64998291 44.1875 24.9375 C45.79678528 25.93113491 47.40616298 26.92462014 49.015625 27.91796875 C50.25022461 28.68246338 50.25022461 28.68246338 51.50976562 29.46240234 C54.70998284 31.4383796 57.92253068 33.39372644 61.13549805 35.34887695 C66.74882666 38.76545272 72.34674468 42.19668811 77.875 45.75 C82.43317555 48.6777779 87.09526627 51.38922231 91.79296875 54.0859375 C94.17155156 55.50555452 96.48915543 56.95488285 98.80078125 58.4765625 C99.75537231 59.10425537 99.75537231 59.10425537 100.72924805 59.74462891 C101.97636998 60.57047578 103.21889251 61.40331802 104.45629883 62.24365234 C105.93309566 63.22199066 107.46298432 64.11928578 109 65 C109.66 64.67 110.32 64.34 111 64 C111.33 64.99 111.66 65.98 112 67 C115.06077882 68.89267671 118.21999126 70.51964538 121.41015625 72.18359375 C122.69212891 73.08271484 122.69212891 73.08271484 124 74 C124 75.32 124 76.64 124 78 C120.71428296 79.61655827 117.42043483 81.21585739 114.125 82.8125 C113.2071875 83.26431641 112.289375 83.71613281 111.34375 84.18164062 C97.85101211 90.69046137 86.2280299 93.40235802 71.6640625 88.44921875 C47.44876567 78.87152672 19.43512501 66.88180699 8.48046875 41.859375 C3.49248349 29.31090036 -1.6167161 14.6389137 -1 1 C-0.67 0.67 -0.34 0.34 0 0 Z " fill="#0B4BCE" transform="translate(15,154)"/>
<path d="M0 0 C2.15059309 3.53186832 2.3797728 6.66287993 2.625 10.75 C2.69976562 11.92046875 2.77453125 13.0909375 2.8515625 14.296875 C2.90054687 15.18890625 2.94953125 16.0809375 3 17 C3.66 17 4.32 17 5 17 C5.67119549 18.4562545 6.33681807 19.91507867 7 21.375 C7.37125 22.18710938 7.7425 22.99921875 8.125 23.8359375 C9 26 9 26 9 28 C9.84691406 28.14115234 9.84691406 28.14115234 10.7109375 28.28515625 C13.5601868 29.17493888 15.28035728 30.58783741 17.625 32.4375 C23.13859754 36.55070242 28.90955198 39.85411206 34.94604492 43.13745117 C41.01247644 46.43729205 46.9761172 49.88104388 52.90283203 53.42529297 C56.63945292 55.64918052 60.41122685 57.78332314 64.234375 59.85546875 C70.32041704 63.15550257 76.32032987 66.59552686 82.3125 70.0625 C83.435354 70.71154297 84.55820801 71.36058594 85.71508789 72.02929688 C95.77340173 77.84940604 105.8070304 83.71010655 115.77832031 89.67822266 C117.67403774 90.80607036 119.57940931 91.91321792 121.4921875 93.01171875 C128.30507958 97.05982221 136.61902222 102.78135765 138.7421875 110.8046875 C138.86980469 111.89136719 138.86980469 111.89136719 139 113 C139.99 113 140.98 113 142 113 C142.33 112.01 142.66 111.02 143 110 C143.99 109.34 144.98 108.68 146 108 C146.99 108.33 147.98 108.66 149 109 C147.92130607 109.96355244 146.83681257 110.92061417 145.75 111.875 C145.14671875 112.40867187 144.5434375 112.94234375 143.921875 113.4921875 C139.95480205 116.60456587 137.09997603 117.56318754 132 117 C129.53261351 115.88835269 127.36509276 114.75970949 125.0625 113.375 C124.38936768 112.98328613 123.71623535 112.59157227 123.02270508 112.18798828 C120.67093165 110.8095345 118.33470304 109.40716859 116 108 C115.07219727 107.443125 114.14439453 106.88625 113.18847656 106.3125 C96.05193918 96.00684745 96.05193918 96.00684745 89.92431641 91.97753906 C88.4400415 91.00252441 88.4400415 91.00252441 86.92578125 90.0078125 C86.02899658 89.40855957 85.13221191 88.80930664 84.20825195 88.19189453 C83.47952881 87.79856934 82.75080566 87.40524414 82 87 C81.01 87.495 81.01 87.495 80 88 C79.67 87.01 79.34 86.02 79 85 C77.4772496 83.77201211 77.4772496 83.77201211 75.625 82.8125 C75.01914063 82.46832031 74.41328125 82.12414062 73.7890625 81.76953125 C71.86527771 80.80243534 71.86527771 80.80243534 69 81 C69 80.01 69 79.02 69 78 C68.01 77.62875 68.01 77.62875 67 77.25 C61.72534331 75.05222638 56.7845068 72.6082503 52.0625 69.375 C47.53214138 66.27779525 42.85011119 63.47386241 38.125 60.6875 C37.37484619 60.2426123 36.62469238 59.79772461 35.85180664 59.33935547 C35.14016357 58.92186035 34.42852051 58.50436523 33.6953125 58.07421875 C32.7364917 57.51093872 32.7364917 57.51093872 31.75830078 56.9362793 C29.84976642 55.85727332 29.84976642 55.85727332 27 55 C25.31002677 53.35697047 23.64783606 51.68528688 22 50 C20.89624968 49.16611529 19.7920546 48.33281907 18.6875 47.5 C6.90020886 37.53999635 1.91519886 20.5759943 -1 6 C-1.171875 3.078125 -1.171875 3.078125 -1 1 C-0.67 0.67 -0.34 0.34 0 0 Z " fill="#0E4ED4" transform="translate(11,109)"/>
<path d="M0 0 C4.69378464 0.4482828 8.52432546 2.65507009 12.625 4.8125 C26.81304014 12.00281898 37.96212685 15.05838511 54 12 C54 11.67 54 11.34 54 11 C56.31 11 58.62 11 61 11 C51.98716678 17.00855548 41.52182244 18.49054487 31.0234375 16.41015625 C22.28382742 14.00952918 14.1341485 10.04552735 5.9921875 6.12109375 C4.94587158 5.61727173 4.94587158 5.61727173 3.87841797 5.10327148 C1.91559254 3.95042405 0.5308207 2.67398023 -1 1 C-0.67 0.67 -0.34 0.34 0 0 Z " fill="#0B3189" transform="translate(62,228)"/>
<path d="M0 0 C2.26586491 2.46289664 2.97786326 3.81545187 3.3828125 7.19140625 C4.06015552 11.37121288 5.45309358 14.68878575 7.4375 18.375 C7.78731934 19.02766846 8.13713867 19.68033691 8.49755859 20.3527832 C13.18182979 28.62969566 20.11972011 33.93410579 28 39 C29.33333333 40.33333333 30.66666667 41.66666667 32 43 C33.63978318 44.04349839 35.30094366 45.05607981 37 46 C36.01 46.495 36.01 46.495 35 47 C33.24755859 46.23071289 33.24755859 46.23071289 31.1484375 44.97265625 C30.38313721 44.51463623 29.61783691 44.05661621 28.8293457 43.5847168 C14.72524686 34.83717315 5.10681673 26.02478811 0.5625 9.5 C0.04097419 6.25495055 -0.1639586 3.27917194 0 0 Z " fill="#264F99" transform="translate(38,63)"/>
<path d="M0 0 C2.15059309 3.53186832 2.3797728 6.66287993 2.625 10.75 C2.69976562 11.92046875 2.77453125 13.0909375 2.8515625 14.296875 C2.90054687 15.18890625 2.94953125 16.0809375 3 17 C3.66 17 4.32 17 5 17 C5.67119549 18.4562545 6.33681807 19.91507867 7 21.375 C7.37125 22.18710938 7.7425 22.99921875 8.125 23.8359375 C9 26 9 26 9 28 C9.5775 28.0825 10.155 28.165 10.75 28.25 C14.25093738 29.41697913 16.36593212 31.73186425 18 35 C18.039992 36.99960012 18.04346799 39.00047242 18 41 C13.87497793 37.10414583 10.54799425 33.0959885 8 28 C7.01 27.67 6.02 27.34 5 27 C1.4253974 19.25502769 -1.57220372 9.58305587 -1 1 C-0.67 0.67 -0.34 0.34 0 0 Z " fill="#175BE5" transform="translate(11,109)"/>
<path d="M0 0 C5.74501792 0.34470107 9.25132118 1.99573381 14 5 C14 5.33 14 5.66 14 6 C9.52608782 6.39475696 6.90762756 5.08406803 3 3 C2.34 3 1.68 3 1 3 C1.06058594 3.62455078 1.12117187 4.24910156 1.18359375 4.89257812 C1.4596421 7.76135752 1.72985844 10.6306586 2 13.5 C2.09539063 14.48226562 2.19078125 15.46453125 2.2890625 16.4765625 C2.80479551 22.00227335 3.30540634 27.4517848 3 33 C2.34 33.66 1.68 34.32 1 35 C-0.87126489 27.08053968 -1.19273674 19.42028652 -1.1875 11.3125 C-1.18814453 10.31976074 -1.18878906 9.32702148 -1.18945312 8.30419922 C-1.134753 1.134753 -1.134753 1.134753 0 0 Z " fill="#204D9D" transform="translate(8,75)"/>
<path d="M0 0 C10.15470846 1.31028496 19.33982162 7.92461807 28 13 C28 13.66 28 14.32 28 15 C29.45833358 16.62514468 29.45833358 16.62514468 31 18 C28.0625 17.625 28.0625 17.625 25 17 C24.67 16.34 24.34 15.68 24 15 C22.39830271 13.95830813 22.39830271 13.95830813 20.375 12.9375 C15.82789419 10.48338941 11.37453954 7.89618623 6.9375 5.25 C6.25800293 4.849021 5.57850586 4.44804199 4.87841797 4.03491211 C3.23474392 3.05202103 1.61476069 2.02970247 0 1 C0 0.67 0 0.34 0 0 Z " fill="#082B77" transform="translate(41,164)"/>
<path d="M0 0 C0.8353125 0.48919922 0.8353125 0.48919922 1.6875 0.98828125 C5.42914599 3.13087921 9.03413004 5.11231274 13.125 6.5 C17.36766592 7.99089666 20.51120148 10.1653512 24 13 C24 13.66 24 14.32 24 15 C25.051875 15.37125 25.051875 15.37125 26.125 15.75 C29.37002459 17.16088026 32.10316737 18.97895398 35 21 C34.01 21.495 34.01 21.495 33 22 C31.0546875 21.22265625 31.0546875 21.22265625 28.875 20.0625 C28.15054688 19.68222656 27.42609375 19.30195313 26.6796875 18.91015625 C26.12539062 18.60980469 25.57109375 18.30945313 25 18 C25 17.34 25 16.68 25 16 C24.27530518 15.72671875 23.55061035 15.4534375 22.80395508 15.171875 C18.17419182 13.23692823 13.98455703 10.57519743 9.6875 8 C8.75615234 7.4534375 7.82480469 6.906875 6.86523438 6.34375 C5.98544922 5.8178125 5.10566406 5.291875 4.19921875 4.75 C3.39315186 4.27046875 2.58708496 3.7909375 1.7565918 3.296875 C1.1769165 2.86890625 0.59724121 2.4409375 0 2 C0 1.34 0 0.68 0 0 Z " fill="#295195" transform="translate(109,130)"/>
<path d="M0 0 C0.99 0.4021875 0.99 0.4021875 2 0.8125 C4.22429026 1.69294823 6.48055279 2.4935176 8.75 3.25 C15.52430397 5.77753387 20.9348503 9.9348503 26 15 C28.28476735 16.44668675 30.61619309 17.71641166 33 19 C32.67 19.66 32.34 20.32 32 21 C30.35 20.34 28.7 19.68 27 19 C27 18.34 27 17.68 27 17 C26.30390625 16.74734375 25.6078125 16.4946875 24.890625 16.234375 C21.62674561 14.84061029 18.76189263 13.12697657 15.75 11.25 C15.18514893 10.89800537 14.62029785 10.54601074 14.03833008 10.18334961 C3.27586746 3.44631963 3.27586746 3.44631963 0 1 C0 0.67 0 0.34 0 0 Z " fill="#23498A" transform="translate(75,110)"/>
<path d="M0 0 C10.37643372 2.20384433 19.65753156 7.37304056 26 16 C21.50390886 14.39486957 17.61705842 12.09896785 13.5625 9.625 C12.91990234 9.23828125 12.27730469 8.8515625 11.61523438 8.453125 C7.67370985 6.06820255 3.77181745 3.64668489 0 1 C0 0.67 0 0.34 0 0 Z " fill="#082A79" transform="translate(95,196)"/>
<path d="M0 0 C4 0 4 0 5.921875 1.8125 C6.95054688 2.8953125 6.95054688 2.8953125 8 4 C10.60590832 5.57933838 13.26316745 7.00700234 15.953125 8.4375 C16.62859375 8.953125 17.3040625 9.46875 18 10 C18 11.32 18 12.64 18 14 C16.71349294 14.69710731 15.42059335 15.38242876 14.125 16.0625 C13.40570313 16.44535156 12.68640625 16.82820313 11.9453125 17.22265625 C10.98238281 17.60744141 10.98238281 17.60744141 10 18 C9.34 17.67 8.68 17.34 8 17 C9.3125 15.5 9.3125 15.5 11 14 C11.99 14 12.98 14 14 14 C13.67 12.35 13.34 10.7 13 9 C11.02 8.34 9.04 7.68 7 7 C7 6.34 7 5.68 7 5 C5.35 4.67 3.7 4.34 2 4 C2 3.34 2 2.68 2 2 C1.34 2 0.68 2 0 2 C0 1.34 0 0.68 0 0 Z " fill="#0D378E" transform="translate(121,218)"/>
<path d="M0 0 C4.66858626 7.0028794 4.28876312 15.41348403 4.1875 23.5625 C4.18685547 24.55185547 4.18621094 25.54121094 4.18554688 26.56054688 C4.15238917 32.11262101 4.0019138 37.53095462 3 43 C2.01 43.495 2.01 43.495 1 44 C-1.64752004 41.42215154 -3.94432065 39.08351902 -6 36 C-3.53199953 37.15173355 -1.95216435 38.04783565 0 40 C2.29161864 34.51648396 2.29957107 29.52449396 2.25 23.6875 C2.25773438 22.78837891 2.26546875 21.88925781 2.2734375 20.96289062 C2.25835147 15.74689615 1.7651447 11.03050031 0.42871094 5.98364258 C0 4 0 4 0 0 Z " fill="#3E69B7" transform="translate(169,129)"/>
<path d="M0 0 C1.485 0.99 1.485 0.99 3 2 C3.65779647 5.76737979 4 9.18765514 4 13 C4.66 13 5.32 13 6 13 C6.72726052 14.5747294 7.43120422 16.16024279 8.125 17.75 C8.51945312 18.63171875 8.91390625 19.5134375 9.3203125 20.421875 C10 23 10 23 9.1171875 25.328125 C8.56417969 26.15570313 8.56417969 26.15570313 8 27 C7.0381577 24.48045712 6.08045759 21.95946363 5.125 19.4375 C4.72087891 18.38079102 4.72087891 18.38079102 4.30859375 17.30273438 C0 5.90072409 0 5.90072409 0 0 Z " fill="#082057" transform="translate(17,172)"/>
<path d="M0 0 C4.50802601 1.25805377 7.4912812 2.90407165 11 6 C7.26512223 5.5020163 5.18762365 5.12508244 2 3 C2.09539063 3.83144531 2.19078125 4.66289062 2.2890625 5.51953125 C2.39992188 6.60621094 2.51078125 7.69289062 2.625 8.8125 C2.74101562 9.89144531 2.85703125 10.97039062 2.9765625 12.08203125 C3 15 3 15 1 18 C0.66151348 16.10507994 0.32943089 14.20901534 0 12.3125 C-0.185625 11.25675781 -0.37125 10.20101562 -0.5625 9.11328125 C-0.95221949 6.34000949 -1.16103686 3.79298302 -1 1 C-0.67 0.67 -0.34 0.34 0 0 Z " fill="#113589" transform="translate(15,154)"/>
<path d="M0 0 C5.07612318 -0.61528766 7.82982006 1.38341651 12 4 C12 4.66 12 5.32 12 6 C13.72440365 6.98753064 15.45475026 7.96468806 17.1875 8.9375 C18.63189453 9.75541016 18.63189453 9.75541016 20.10546875 10.58984375 C22.80662842 11.90579333 25.04356101 12.57301887 28 13 C28 13.33 28 13.66 28 14 C22.18788969 14.61753672 18.81065042 12.63458174 14 9.75 C13.31421875 9.35425781 12.6284375 8.95851562 11.921875 8.55078125 C7.84741847 6.17919873 3.85151027 3.72012913 0 1 C0 0.67 0 0.34 0 0 Z " fill="#091E49" transform="translate(121,212)"/>
<path d="M0 0 C1.50992002 6.03968006 -1.02267294 10.4385879 -3.1875 16.125 C-3.58775391 17.23488281 -3.98800781 18.34476563 -4.40039062 19.48828125 C-4.79806641 20.54660156 -5.19574219 21.60492188 -5.60546875 22.6953125 C-5.96793701 23.66484863 -6.33040527 24.63438477 -6.70385742 25.63330078 C-8.16448853 28.30034881 -9.18447535 28.98285968 -12 30 C-12 28.02 -12 26.04 -12 24 C-11.01 24.33 -10.02 24.66 -9 25 C-6.03 16.75 -3.06 8.5 0 0 Z " fill="#46689E" transform="translate(188,108)"/>
<path d="M0 0 C2.15059309 3.53186832 2.3797728 6.66287993 2.625 10.75 C2.69976562 11.92046875 2.77453125 13.0909375 2.8515625 14.296875 C2.90054687 15.18890625 2.94953125 16.0809375 3 17 C3.66 17 4.32 17 5 17 C5.76411467 20.73567172 6.07174763 23.34811918 5 27 C1.69336334 18.96959667 -1.58579129 9.78686935 -1 1 C-0.67 0.67 -0.34 0.34 0 0 Z " fill="#13285F" transform="translate(11,109)"/>
<path d="M0 0 C6.89409296 2.36984446 12.83810028 5.93056291 17 12 C16.278125 11.690625 15.55625 11.38125 14.8125 11.0625 C12.19692691 10.07439461 9.74881018 9.4712246 7 9 C7 8.01 7 7.02 7 6 C5.8553125 5.5978125 5.8553125 5.5978125 4.6875 5.1875 C2.12619116 4.05575888 0.80307062 3.08776599 -1 1 C-0.67 0.67 -0.34 0.34 0 0 Z " fill="#082D7D" transform="translate(73,181)"/>
<path d="M0 0 C1.65 0.33 3.3 0.66 5 1 C4.01 1.66 3.02 2.32 2 3 C1.40284698 5.01735382 1.40284698 5.01735382 1.26953125 7.3515625 C1.18896484 8.20234375 1.10839844 9.053125 1.02539062 9.9296875 C0.92000977 11.26386719 0.92000977 11.26386719 0.8125 12.625 C0.73064453 13.5221875 0.64878906 14.419375 0.56445312 15.34375 C0.36389309 17.56170799 0.17629573 19.78000313 0 22 C-0.33 22 -0.66 22 -1 22 C-1.22333047 19.45886142 -1.42902091 16.91827416 -1.625 14.375 C-1.68945312 13.66214844 -1.75390625 12.94929688 -1.8203125 12.21484375 C-2.15497142 7.65511601 -1.78239103 4.31311418 0 0 Z " fill="#335191" transform="translate(38,40)"/>
<path d="M0 0 C0.54269531 0.28875 1.08539063 0.5775 1.64453125 0.875 C2.71767578 1.431875 2.71767578 1.431875 3.8125 2 C4.52019531 2.37125 5.22789062 2.7425 5.95703125 3.125 C8.08920729 4.19685358 8.08920729 4.19685358 11 4 C11 4.99 11 5.98 11 7 C11.99 6.67 12.98 6.34 14 6 C14 6.99 14 7.98 14 9 C14.78375 9.28875 15.5675 9.5775 16.375 9.875 C19 11 19 11 21 13 C18.03 12.505 18.03 12.505 15 12 C15 11.34 15 10.68 15 10 C14.01 10 13.02 10 12 10 C12 9.34 12 8.68 12 8 C10.35 7.67 8.7 7.34 7 7 C7 6.34 7 5.68 7 5 C5.35 4.67 3.7 4.34 2 4 C2 3.34 2 2.68 2 2 C1.34 2 0.68 2 0 2 C0 1.34 0 0.68 0 0 Z " fill="#2954A8" transform="translate(129,149)"/>
<path d="M0 0 C6.23792971 1.203811 10.09903445 2.91586204 15 7 C15 7.66 15 8.32 15 9 C15.99 9.33 16.98 9.66 18 10 C17.01 10.495 17.01 10.495 16 11 C12.4375 9.75 12.4375 9.75 9 8 C8.67 7.01 8.34 6.02 8 5 C6.34561387 4.30341637 4.67745682 3.63903117 3 3 C1.1875 1.375 1.1875 1.375 0 0 Z " fill="#436697" transform="translate(124,85)"/>
<path d="M0 0 C3.08438382 1.46786941 5.90764097 3.17038064 8.765625 5.0390625 C9.65507813 5.61914062 10.54453125 6.19921875 11.4609375 6.796875 C12.84152344 7.70179687 12.84152344 7.70179687 14.25 8.625 C15.65378906 9.54152344 15.65378906 9.54152344 17.0859375 10.4765625 C19.39187336 11.98247979 21.69650441 13.49035372 24 15 C23.01 15.495 23.01 15.495 22 16 C19.99152635 15.01712992 17.99180409 14.01622658 16 13 C15.01 13 14.02 13 13 13 C12.77441406 12.41476563 12.54882812 11.82953125 12.31640625 11.2265625 C10.63178149 8.37719718 8.69760639 7.17800475 5.9375 5.375 C1.09722222 2.19444444 1.09722222 2.19444444 0 0 Z " fill="#253E5E" transform="translate(92,64)"/>
<path d="M0 0 C6.13661472 1.25237035 9.54556919 3.67253634 14 8 C14.51175781 8.49628906 15.02351562 8.99257812 15.55078125 9.50390625 C16.71489953 10.65490771 17.85982583 11.8252751 19 13 C14.05557708 12.57619232 12.38555125 10.4624956 9 7 C6.63841444 5.33932347 4.23220369 3.77829532 1.79296875 2.234375 C1.20128906 1.82703125 0.60960937 1.4196875 0 1 C0 0.67 0 0.34 0 0 Z " fill="#2F3F60" transform="translate(142,96)"/>
<path d="M0 0 C2.00720923 0.28674418 4.0085944 0.61866701 6 1 C6 1.33 6 1.66 6 2 C4.35 2.33 2.7 2.66 1 3 C1 8.94 1 14.88 1 21 C0.34 20.67 -0.32 20.34 -1 20 C-1.02888514 16.85418577 -1.04675923 13.70840531 -1.0625 10.5625 C-1.07087891 9.66466797 -1.07925781 8.76683594 -1.08789062 7.84179688 C-1.09111328 6.98779297 -1.09433594 6.13378906 -1.09765625 5.25390625 C-1.10551147 4.06776733 -1.10551147 4.06776733 -1.11352539 2.85766602 C-1 1 -1 1 0 0 Z " fill="#628EC9" transform="translate(80,12)"/>
<path d="M0 0 C4.95962813 2.39124927 9.6323308 4.93152708 14.23828125 7.94921875 C16.12830781 9.16186886 16.12830781 9.16186886 19 10 C19 10.66 19 11.32 19 12 C17.68 12 16.36 12 15 12 C15 11.34 15 10.68 15 10 C13.35 9.67 11.7 9.34 10 9 C10 8.34 10 7.68 10 7 C8.35 6.67 6.7 6.34 5 6 C5 5.34 5 4.68 5 4 C4.360625 3.896875 3.72125 3.79375 3.0625 3.6875 C2.381875 3.460625 1.70125 3.23375 1 3 C0.67 2.01 0.34 1.02 0 0 Z " fill="#3867B2" transform="translate(82,65)"/>
<path d="M0 0 C5.74501792 0.34470107 9.25132118 1.99573381 14 5 C14 5.33 14 5.66 14 6 C9.52357923 6.3949783 6.89822165 5.11859872 3 3 C2.01 2.67 1.02 2.34 0 2 C0 3.65 0 5.3 0 7 C-0.33 7 -0.66 7 -1 7 C-1.04254356 5.00045254 -1.04080783 2.99958364 -1 1 C-0.67 0.67 -0.34 0.34 0 0 Z " fill="#3157A1" transform="translate(8,75)"/>
<path d="M0 0 C6.04283755 1.12663073 8.88127639 2.21337527 13 7 C13.928125 7.928125 14.85625 8.85625 15.8125 9.8125 C16.8953125 10.8953125 16.8953125 10.8953125 18 12 C14.20810923 10.63410386 11.15618622 8.89545351 7.875 6.5625 C7.02679688 5.96566406 6.17859375 5.36882812 5.3046875 4.75390625 C3.35690684 3.27161216 1.66837561 1.78287198 0 0 Z " fill="#234378" transform="translate(145,153)"/>
<path d="M0 0 C5.32271825 0.40943987 7.44018581 1.10645323 11 5 C13.27776041 6.46073766 15.61456486 7.71553493 18 9 C17.01 9.495 17.01 9.495 16 10 C14.30419922 9.28735352 14.30419922 9.28735352 12.3046875 8.12890625 C11.23154297 7.51499023 11.23154297 7.51499023 10.13671875 6.88867188 C9.39035156 6.45103516 8.64398438 6.01339844 7.875 5.5625 C6.74384766 4.9118457 6.74384766 4.9118457 5.58984375 4.24804688 C3.72242866 3.17251034 1.86067303 2.08715861 0 1 C0 0.67 0 0.34 0 0 Z " fill="#06226A" transform="translate(43,219)"/>
<path d="M0 0 C3.96 1.98 3.96 1.98 8 4 C8 4.66 8 5.32 8 6 C9.45833358 7.62514468 9.45833358 7.62514468 11 9 C8.0625 8.625 8.0625 8.625 5 8 C4.67 7.34 4.34 6.68 4 6 C2.35857037 4.9590934 0.69287785 3.95495674 -1 3 C-0.67 2.01 -0.34 1.02 0 0 Z " fill="#093492" transform="translate(61,173)"/>
<path d="M0 0 C0.73605469 0.48210937 1.47210938 0.96421875 2.23046875 1.4609375 C3.20628906 2.09257813 4.18210937 2.72421875 5.1875 3.375 C6.63189453 4.31472656 6.63189453 4.31472656 8.10546875 5.2734375 C10.69803936 6.81988312 13.16853116 7.97508075 16 9 C16 9.66 16 10.32 16 11 C13.03 10.505 13.03 10.505 10 10 C10 9.34 10 8.68 10 8 C8.35 7.67 6.7 7.34 5 7 C5 6.34 5 5.68 5 5 C3.68 4.67 2.36 4.34 1 4 C0.67 2.68 0.34 1.36 0 0 Z " fill="#2A58B0" transform="translate(41,93)"/>
<path d="M0 0 C3.69876091 1.37287342 6.9514476 3.06355453 10.3125 5.125 C11.19550781 5.66382813 12.07851562 6.20265625 12.98828125 6.7578125 C13.65214844 7.16773438 14.31601563 7.57765625 15 8 C14.01 8.495 14.01 8.495 13 9 C11 8.33333333 9 7.66666667 7 7 C6.01 7.495 6.01 7.495 5 8 C4.731875 7.236875 4.46375 6.47375 4.1875 5.6875 C3.05575888 3.12619116 2.08776599 1.80307062 0 0 Z " fill="#0B39B0" transform="translate(86,189)"/>
<path d="M0 0 C4.13937592 3.30015998 7.58662205 6.17324411 10 11 C7.00779732 9.63629701 4.70973471 8.05091917 2.25 5.875 C1.63640625 5.33617187 1.0228125 4.79734375 0.390625 4.2421875 C-0.06828125 3.83226562 -0.5271875 3.42234375 -1 3 C-0.67 2.01 -0.34 1.02 0 0 Z " fill="#0A2A73" transform="translate(33,208)"/>
<path d="M0 0 C0.66 0.33 1.32 0.66 2 1 C1.4140625 7.15234375 1.4140625 7.15234375 1 9 C0.01 9.495 0.01 9.495 -1 10 C-3.64752004 7.42215154 -5.94432065 5.08351902 -8 2 C-5.53199953 3.15173355 -3.95216435 4.04783565 -2 6 C-1.34 4.02 -0.68 2.04 0 0 Z " fill="#26457A" transform="translate(171,163)"/>
<path d="M0 0 C0.99 0.33 1.98 0.66 3 1 C1.92456217 1.98783194 0.83926783 2.96493943 -0.25 3.9375 C-1.15492188 4.75541016 -1.15492188 4.75541016 -2.078125 5.58984375 C-4.08467305 7.06212799 -5.57002449 7.57529189 -8 8 C-7.67 7.01 -7.34 6.02 -7 5 C-6.01 5 -5.02 5 -4 5 C-3.67 4.01 -3.34 3.02 -3 2 C-2.01 1.34 -1.02 0.68 0 0 Z " fill="#184092" transform="translate(157,217)"/>
<path d="M0 0 C1.65 0 3.3 0 5 0 C5 0.99 5 1.98 5 3 C6.2065625 3.433125 6.2065625 3.433125 7.4375 3.875 C10 5 10 5 11 7 C9.68 7 8.36 7 7 7 C7 6.34 7 5.68 7 5 C5.35 4.67 3.7 4.34 2 4 C2 3.34 2 2.68 2 2 C1.34 2 0.68 2 0 2 C0 1.34 0 0.68 0 0 Z " fill="#082F8A" transform="translate(41,169)"/>
<path d="M0 0 C5.80342274 1.48805711 10.17590879 4.59097555 15 8 C14.01 8.495 14.01 8.495 13 9 C11.0546875 8.22265625 11.0546875 8.22265625 8.875 7.0625 C8.15054688 6.68222656 7.42609375 6.30195313 6.6796875 5.91015625 C5.84824219 5.45962891 5.84824219 5.45962891 5 5 C5 4.34 5 3.68 5 3 C2.525 2.01 2.525 2.01 0 1 C0 0.67 0 0.34 0 0 Z " fill="#1C305E" transform="translate(129,143)"/>
<path d="M0 0 C3.14608258 3.41965498 3.74940605 6.40577752 4 11 C3.01 12.485 3.01 12.485 2 14 C0.66416101 9.15758367 -0.25328119 5.06562383 0 0 Z " fill="#244580" transform="translate(38,63)"/>
<path d="M0 0 C1.60781893 0.7631861 3.21113138 1.53587058 4.8125 2.3125 C5.70582031 2.74175781 6.59914063 3.17101562 7.51953125 3.61328125 C9.78931933 4.88221789 11.29248171 6.06556898 13 8 C10.03 7.505 10.03 7.505 7 7 C7 6.34 7 5.68 7 5 C5.35 4.67 3.7 4.34 2 4 C2 3.34 2 2.68 2 2 C1.34 2 0.68 2 0 2 C0 1.34 0 0.68 0 0 Z " fill="#2C57A8" transform="translate(25,83)"/>
<path d="M0 0 C5.07612318 -0.61528766 7.82982006 1.38341651 12 4 C11.34 4.66 10.68 5.32 10 6 C2.42857143 3 2.42857143 3 0 0 Z " fill="#0A3393" transform="translate(121,212)"/>
<path d="M0 0 C4.30764815 1.56641751 8.06171464 3.68336156 12 6 C8.25 7.125 8.25 7.125 6 6 C6 5.34 6 4.68 6 4 C4.35 3.67 2.7 3.34 1 3 C0.67 2.01 0.34 1.02 0 0 Z " fill="#0D358E" transform="translate(29,162)"/>
<path d="M0 0 C3.96 1.98 7.92 3.96 12 6 C12 6.33 12 6.66 12 7 C10.35 7 8.7 7 7 7 C7 6.34 7 5.68 7 5 C5.5459375 4.5978125 5.5459375 4.5978125 4.0625 4.1875 C3.051875 3.795625 2.04125 3.40375 1 3 C0.67 2.01 0.34 1.02 0 0 Z " fill="#375EAA" transform="translate(57,50)"/>
<path d="M0 0 C1.64936913 0.78427352 3.29441127 1.57765259 4.9375 2.375 C5.85402344 2.81585938 6.77054687 3.25671875 7.71484375 3.7109375 C10 5 10 5 11 7 C9.68 7 8.36 7 7 7 C7 6.34 7 5.68 7 5 C5.35 4.67 3.7 4.34 2 4 C2 3.34 2 2.68 2 2 C1.34 2 0.68 2 0 2 C0 1.34 0 0.68 0 0 Z " fill="#2857AE" transform="translate(108,136)"/>
<path d="M0 0 C3 1 3 1 3.984375 2.7421875 C4.23703125 3.44601563 4.4896875 4.14984375 4.75 4.875 C5.01296875 5.57367188 5.2759375 6.27234375 5.546875 6.9921875 C6 9 6 9 5 12 C4.15885829 10.56705502 3.32734313 9.12845595 2.5 7.6875 C1.80390625 6.48673828 1.80390625 6.48673828 1.09375 5.26171875 C0 3 0 3 0 0 Z " fill="#0B235B" transform="translate(18,137)"/>
<path d="M0 0 C1.98 0.99 1.98 0.99 4 2 C3.34 4.64 2.68 7.28 2 10 C-0.4294516 6.3558226 -0.16179575 4.28758728 0 0 Z " fill="#1859DE" transform="translate(17,157)"/>
<path d="M0 0 C3.59391114 1.33488128 6.75490696 2.96022723 10 5 C8.68 5.33 7.36 5.66 6 6 C6 5.34 6 4.68 6 4 C4.35 3.67 2.7 3.34 1 3 C0.67 2.01 0.34 1.02 0 0 Z " fill="#3962AD" transform="translate(43,42)"/>
<path d="M0 0 C0.66 0 1.32 0 2 0 C2.38922918 1.28745036 2.76098036 2.58019597 3.125 3.875 C3.33382813 4.59429687 3.54265625 5.31359375 3.7578125 6.0546875 C3.83773438 6.69664062 3.91765625 7.33859375 4 8 C3.34 8.66 2.68 9.32 2 10 C1.34 6.7 0.68 3.4 0 0 Z " fill="#0A3490" transform="translate(23,189)"/>
<path d="M0 0 C3 3 3 3 3.07421875 5.04296875 C2.71614583 7.02864583 2.35807292 9.01432292 2 11 C1.67 11 1.34 11 1 11 C0.67 7.37 0.34 3.74 0 0 Z " fill="#0D2A67" transform="translate(15,161)"/>
<path d="M0 0 C2.09350689 3.4019487 2.17942163 6.05272412 2 10 C-0.05619793 7.68677733 -0.95899829 6.44076838 -1.25 3.3125 C-1 1 -1 1 0 0 Z " fill="#2257AA" transform="translate(11,109)"/>
<path d="M0 0 C7.57142857 1.85714286 7.57142857 1.85714286 10 5 C2.42857143 3.14285714 2.42857143 3.14285714 0 0 Z " fill="#4B72A9" transform="translate(142,96)"/>
<path d="M0 0 C1.32 0 2.64 0 4 0 C6.25 2.5 6.25 2.5 8 5 C5.03 4.505 5.03 4.505 2 4 C2 3.34 2 2.68 2 2 C1.34 2 0.68 2 0 2 C0 1.34 0 0.68 0 0 Z " fill="#093285" transform="translate(121,218)"/>
<path d="M0 0 C3.465 1.485 3.465 1.485 7 3 C6.67 3.99 6.34 4.98 6 6 C4.02 5.01 2.04 4.02 0 3 C0 2.01 0 1.02 0 0 Z " fill="#2C529F" transform="translate(150,162)"/>
<path d="M0 0 C0.66 0 1.32 0 2 0 C4.09230769 4.43076923 4.09230769 4.43076923 3.625 7.3125 C3.41875 7.869375 3.2125 8.42625 3 9 C3 8.34 3 7.68 3 7 C2.34 7 1.68 7 1 7 C0.67 4.69 0.34 2.38 0 0 Z " fill="#1E51C8" transform="translate(16,130)"/>
<path d="M0 0 C2.31 0.33 4.62 0.66 7 1 C7 1.33 7 1.66 7 2 C5.35 2 3.7 2 2 2 C2 3.65 2 5.3 2 7 C1.67 7 1.34 7 1 7 C0.67 4.69 0.34 2.38 0 0 Z " fill="#94CBFC" transform="translate(80,15)"/>
<path d="M0 0 C0.66 0 1.32 0 2 0 C1.67 0.66 1.34 1.32 1 2 C0.67 1.34 0.34 0.68 0 0 Z " fill="#0F1E3D" transform="translate(66,182)"/>
<path d="M0 0 C0.66 0 1.32 0 2 0 C1.67 0.66 1.34 1.32 1 2 C0.67 1.34 0.34 0.68 0 0 Z " fill="#26394C" transform="translate(129,92)"/>
<path d="" fill="#313163" transform="translate(0,0)"/>
<path d="" fill="#313163" transform="translate(0,0)"/>
<path d="" fill="#214263" transform="translate(0,0)"/>
<path d="" fill="#214263" transform="translate(0,0)"/>
<path d="" fill="#313163" transform="translate(0,0)"/>
<path d="" fill="#313163" transform="translate(0,0)"/>
<path d="" fill="#313163" transform="translate(0,0)"/>
<path d="" fill="#313163" transform="translate(0,0)"/>
<path d="" fill="#313163" transform="translate(0,0)"/>
<path d="" fill="#313163" transform="translate(0,0)"/>
<path d="" fill="#313131" transform="translate(0,0)"/>
<path d="" fill="#000089" transform="translate(0,0)"/>
<path d="" fill="#C6C6C6" transform="translate(0,0)"/>
</svg>
